<?xml version="1.0" standalone="no"?>
<!DOCTYPE svg PUBLIC "-//W3C//DTD SVG 20010904//EN"
 "http://www.w3.org/TR/2001/REC-SVG-20010904/DTD/svg10.dtd">
<svg version="1.0" xmlns="http://www.w3.org/2000/svg"
 width="512.000000pt" height="512.000000pt" viewBox="0 0 512.000000 512.000000"
 preserveAspectRatio="xMidYMid meet">

<g transform="translate(0.000000,512.000000) scale(0.100000,-0.100000)"
fill="#7C7A8F" stroke="none">
<path d="M1200 4880 l0 -80 -80 0 -80 0 0 -80 0 -80 80 0 80 0 0 -240 0 -240
-80 0 -80 0 0 -80 0 -80 80 0 80 0 0 -360 0 -360 -80 0 -80 0 0 -1480 0 -1480
-200 0 -200 0 0 -80 0 -80 1920 0 1920 0 0 80 0 80 -200 0 -200 0 0 1480 0
1480 -80 0 -80 0 0 80 0 80 80 0 80 0 0 80 0 80 -80 0 -80 0 0 200 0 200 80 0
80 0 0 80 0 80 -80 0 -80 0 0 160 0 160 -80 0 -80 0 0 -160 0 -160 -320 0
-320 0 0 160 0 160 -80 0 -80 0 0 -160 0 -160 -360 0 -360 0 0 240 0 240 80 0
80 0 0 80 0 80 -80 0 -80 0 0 80 0 80 -80 0 -80 0 0 -80 0 -80 -360 0 -360 0
0 80 0 80 -80 0 -80 0 0 -80z m880 -480 l0 -240 -360 0 -360 0 0 240 0 240
360 0 360 0 0 -240z m0 -520 l0 -120 -200 0 -200 0 0 -240 0 -240 -160 0 -160
0 0 360 0 360 360 0 360 0 0 -120z m880 -80 l0 -200 -160 0 -160 0 0 80 0 80
-200 0 -200 0 0 120 0 120 360 0 360 0 0 -200z m800 0 l0 -200 -320 0 -320 0
0 200 0 200 320 0 320 0 0 -200z m-1280 -760 l0 -560 480 0 480 0 0 320 0 320
240 0 240 0 0 -1400 0 -1400 -400 0 -400 0 0 360 0 360 -560 0 -560 0 0 -360
0 -360 -400 0 -400 0 0 1400 0 1400 320 0 320 0 0 240 0 240 320 0 320 0 0
-560z m480 0 l0 -400 -160 0 -160 0 0 400 0 400 160 0 160 0 0 -400z m800 320
l0 -80 -240 0 -240 0 0 -320 0 -320 -80 0 -80 0 0 400 0 400 320 0 320 0 0
-80z m-1280 -2760 l0 -280 -160 0 -160 0 0 280 0 280 160 0 160 0 0 -280z
m480 0 l0 -280 -160 0 -160 0 0 280 0 280 160 0 160 0 0 -280z"/>
<path d="M1360 2720 l0 -240 240 0 240 0 0 240 0 240 -240 0 -240 0 0 -240z
m320 0 l0 -80 -80 0 -80 0 0 80 0 80 80 0 80 0 0 -80z"/>
<path d="M1360 2080 l0 -240 240 0 240 0 0 240 0 240 -240 0 -240 0 0 -240z
m320 0 l0 -80 -80 0 -80 0 0 80 0 80 80 0 80 0 0 -80z"/>
<path d="M2000 2080 l0 -240 240 0 240 0 0 240 0 240 -240 0 -240 0 0 -240z
m320 0 l0 -80 -80 0 -80 0 0 80 0 80 80 0 80 0 0 -80z"/>
<path d="M2640 2080 l0 -240 240 0 240 0 0 240 0 240 -240 0 -240 0 0 -240z
m320 0 l0 -80 -80 0 -80 0 0 80 0 80 80 0 80 0 0 -80z"/>
<path d="M3280 2080 l0 -240 240 0 240 0 0 240 0 240 -240 0 -240 0 0 -240z
m320 0 l0 -80 -80 0 -80 0 0 80 0 80 80 0 80 0 0 -80z"/>
<path d="M1360 1440 l0 -240 240 0 240 0 0 240 0 240 -240 0 -240 0 0 -240z
m320 0 l0 -80 -80 0 -80 0 0 80 0 80 80 0 80 0 0 -80z"/>
<path d="M2000 1440 l0 -240 240 0 240 0 0 240 0 240 -240 0 -240 0 0 -240z
m320 0 l0 -80 -80 0 -80 0 0 80 0 80 80 0 80 0 0 -80z"/>
<path d="M2640 1440 l0 -240 240 0 240 0 0 240 0 240 -240 0 -240 0 0 -240z
m320 0 l0 -80 -80 0 -80 0 0 80 0 80 80 0 80 0 0 -80z"/>
<path d="M3280 1440 l0 -240 240 0 240 0 0 240 0 240 -240 0 -240 0 0 -240z
m320 0 l0 -80 -80 0 -80 0 0 80 0 80 80 0 80 0 0 -80z"/>
</g>
</svg>
