<svg width="25" height="25" viewBox="0 0 25 25" fill="none" xmlns="http://www.w3.org/2000/svg">
<path d="M2.97619 0C1.33929 0 0 1.33929 0 2.97619V22.0238C0 23.6607 1.33929 25 2.97619 25H22.0238C23.6607 25 25 23.6607 25 22.0238V2.97619C25 1.33929 23.6607 0 22.0238 0H2.97619ZM2.97619 1.19048H22.0238C23.0166 1.19048 23.8095 1.98335 23.8095 2.97619V22.0238C23.8095 23.0166 23.0166 23.8095 22.0238 23.8095H2.97619C1.98335 23.8095 1.19048 23.0166 1.19048 22.0238V2.97619C1.19048 1.98335 1.98335 1.19048 2.97619 1.19048ZM5.95238 4.17364C5.30134 4.17364 4.71308 4.36895 4.27827 4.734C3.8458 5.09905 3.5784 5.64546 3.5784 6.2314C3.5784 7.34049 4.54334 8.20778 5.76869 8.29381C5.76869 8.29381 5.77102 8.29381 5.77102 8.29613C5.82915 8.31473 5.8896 8.32636 5.95238 8.32636C7.30562 8.32636 8.32636 7.3777 8.32636 6.2314C8.32636 6.21977 8.32636 6.20815 8.32636 6.19885C8.26358 5.06882 7.25679 4.17364 5.95238 4.17364ZM5.95238 5.35017C6.78013 5.35017 7.10798 5.71987 7.14286 6.24535C7.13588 6.75456 6.82199 7.14983 5.95238 7.14983C5.12695 7.14983 4.75493 6.72666 4.75493 6.2314C4.75493 5.98261 4.84561 5.79427 5.03627 5.63384C5.22693 5.4734 5.53385 5.35017 5.95238 5.35017ZM4.16667 8.92857C3.83882 8.92857 3.57143 9.19596 3.57143 9.52381V20.8333C3.57143 21.1612 3.83882 21.4286 4.16667 21.4286H7.7381C8.06594 21.4286 8.33333 21.1612 8.33333 20.8333V9.52381C8.33333 9.19596 8.06594 8.92857 7.7381 8.92857H4.16667ZM9.52381 8.92857C9.19596 8.92857 8.92857 9.19596 8.92857 9.52381V20.8333C8.92857 21.1612 9.19596 21.4286 9.52381 21.4286H13.0952C13.4231 21.4286 13.6905 21.1612 13.6905 20.8333V14.881C13.6905 14.388 13.8253 13.8951 14.0625 13.5742C14.2997 13.2533 14.5996 13.0604 15.1669 13.0697C15.7552 13.079 16.0645 13.2812 16.2993 13.5975C16.5365 13.9114 16.6667 14.3857 16.6667 14.881V20.8333C16.6667 21.1612 16.9341 21.4286 17.2619 21.4286H20.8333C21.1612 21.4286 21.4286 21.1612 21.4286 20.8333V14.4415C21.4286 12.679 20.9054 11.2816 20.0102 10.3376C19.1174 9.3936 17.8711 8.92857 16.5551 8.92857C15.3041 8.92857 14.3508 9.3471 13.6905 9.77725V9.52381C13.6905 9.19596 13.4231 8.92857 13.0952 8.92857H9.52381ZM4.7619 10.119H7.14286V20.2381H4.7619V10.119ZM10.119 10.119H12.5V11.0491C12.5 11.3049 12.6628 11.5304 12.9069 11.6118C13.1487 11.6932 13.4161 11.6095 13.5696 11.4072C13.5696 11.4072 14.5066 10.119 16.5551 10.119C17.5991 10.119 18.4942 10.4655 19.1476 11.1561C19.801 11.8466 20.2381 12.9092 20.2381 14.4415V20.2381H17.8571V14.881C17.8571 14.1857 17.6897 13.4696 17.2549 12.8836C16.8225 12.3 16.09 11.8955 15.1879 11.8792C14.2834 11.8629 13.5393 12.2791 13.1045 12.8674C12.6697 13.458 12.5 14.1834 12.5 14.881V20.2381H10.119V10.119Z" fill="white"/>
</svg>
