<svg width="25" height="25" viewBox="0 0 25 25" fill="none" xmlns="http://www.w3.org/2000/svg">
<path d="M25 2.95866C24.0784 3.46216 23.0906 3.80023 22.0521 3.95368C23.112 3.17205 23.9264 1.93488 24.3083 0.462741C23.3185 1.18442 22.2177 1.7095 21.0506 1.99242C20.1153 0.764841 18.7826 0 17.3077 0C14.4747 0 12.1775 2.8244 12.1775 6.31054C12.1775 6.80445 12.2243 7.28637 12.312 7.74911C8.04887 7.48537 4.27091 4.97267 1.73993 1.15326C1.29764 2.08833 1.04629 3.17205 1.04629 4.32771C1.04629 6.51674 1.95035 8.44922 3.32788 9.58329C2.48617 9.54973 1.69511 9.26441 1.00343 8.79208C1.00343 8.81845 1.00343 8.84483 1.00343 8.8712C1.00343 11.9306 2.77258 14.4792 5.11651 15.0619C4.68787 15.2057 4.23389 15.2824 3.76627 15.2824C3.43504 15.2824 3.11355 15.2441 2.79986 15.1674C3.45452 17.6729 5.34837 19.5023 7.59099 19.5526C5.83743 21.2453 3.62598 22.2523 1.22165 22.2523C0.80664 22.2523 0.399424 22.2236 0 22.1636C2.26794 23.957 4.96454 25 7.86182 25C17.296 25 22.4554 15.3831 22.4554 7.04421C22.4554 6.77088 22.4495 6.49516 22.4417 6.22662C23.4432 5.33711 24.3122 4.22461 25 2.95866Z" fill="white"/>
</svg>
