<svg width="25" height="25" viewBox="0 0 25 25" fill="none" xmlns="http://www.w3.org/2000/svg">
<path d="M7.38636 0C3.31365 0 0 3.31365 0 7.38636V17.6136C0 21.6863 3.31365 25 7.38636 25H17.6136C21.6863 25 25 21.6863 25 17.6136V7.38636C25 3.31365 21.6863 0 17.6136 0H7.38636ZM7.38636 1.13636H17.6136C21.0716 1.13636 23.8636 3.92844 23.8636 7.38636V17.6136C23.8636 21.0716 21.0716 23.8636 17.6136 23.8636H7.38636C3.92844 23.8636 1.13636 21.0716 1.13636 17.6136V7.38636C1.13636 3.92844 3.92844 1.13636 7.38636 1.13636ZM19.3182 4.54545C18.6901 4.54545 18.1818 5.05371 18.1818 5.68182C18.1818 6.30993 18.6901 6.81818 19.3182 6.81818C19.9463 6.81818 20.4545 6.30993 20.4545 5.68182C20.4545 5.05371 19.9463 4.54545 19.3182 4.54545ZM12.5 6.25C9.0554 6.25 6.25 9.0554 6.25 12.5C6.25 15.9446 9.0554 18.75 12.5 18.75C15.9446 18.75 18.75 15.9446 18.75 12.5C18.75 9.0554 15.9446 6.25 12.5 6.25ZM12.5 7.38636C15.3298 7.38636 17.6136 9.67019 17.6136 12.5C17.6136 15.3298 15.3298 17.6136 12.5 17.6136C9.67019 17.6136 7.38636 15.3298 7.38636 12.5C7.38636 9.67019 9.67019 7.38636 12.5 7.38636Z" fill="white"/>
</svg>
